<svg width="30" height="30" viewBox="0 0 30 30" fill="none" xmlns="http://www.w3.org/2000/svg">
<rect width="30" height="30" fill="#4D3A39"/>
<path d="M11.4376 13.3437H9.15949V20.0729H11.4376V13.3437Z" fill="white"/>
<path d="M11.0546 10.2034C10.8375 10.0708 10.5823 10 10.3213 10C10.1472 10 9.97474 10.0315 9.81393 10.0927C9.65312 10.154 9.50713 10.2437 9.38433 10.3567C9.26154 10.4698 9.16437 10.604 9.09841 10.7515C9.03246 10.8991 8.99902 11.0571 9.00002 11.2165C9.00152 11.4555 9.08029 11.6886 9.22639 11.8866C9.37248 12.0846 9.57936 12.2386 9.82093 12.3291C10.0625 12.4196 10.3279 12.4425 10.5837 12.3951C10.8395 12.3476 11.0743 12.2319 11.2583 12.0624C11.4423 11.893 11.5674 11.6775 11.6178 11.443C11.6682 11.2086 11.6416 10.9657 11.5413 10.7451C11.4411 10.5245 11.2717 10.336 11.0546 10.2034Z" fill="white"/>
<path d="M15.0944 13.3434H12.8998L12.8923 20.0865H15.1704V16.7566C15.1704 15.8807 15.3526 15.0326 16.5372 15.0326C17.7219 15.0326 17.7219 16.0406 17.7219 16.8192V20.0726H20V16.3812C20 14.5669 19.5368 13.1765 17.2587 13.1765C16.8245 13.161 16.3938 13.2537 16.0126 13.4446C15.6315 13.6356 15.3141 13.9178 15.0944 14.261V13.3434Z" fill="white"/>
</svg>
