<svg width="11" height="10" viewBox="0 0 11 10" fill="none" xmlns="http://www.w3.org/2000/svg">
<path d="M11 1.01289C10.5958 1.1997 10.0838 1.37505 9.625 1.43334C10.0916 1.14476 10.8318 0.543713 11 0C10.5641 0.267079 9.77579 0.552313 9.26154 0.655513C8.85088 0.201623 8.26513 0 7.61613 0C6.36946 0 5.5 1.10128 5.5 2.3889V3.34446C3.66667 3.34446 1.87917 1.88866 0.766792 0.477779C0.565656 0.833383 0.460058 1.23887 0.461083 1.65168C0.461083 2.52076 1.22696 3.40275 1.83333 3.82224C1.46346 3.81029 0.763125 3.51598 0.458333 3.34446V3.37169C0.458333 4.50259 1.21963 5.27039 2.25133 5.48443C2.06296 5.53842 1.83333 5.73335 0.949666 5.73335C1.23658 6.65786 2.67896 7.14662 3.66667 7.16669C2.89392 7.79115 1.51617 8.12225 0.458333 8.12225C0.275458 8.12225 0.176458 8.13276 0 8.11126C0.99825 8.7706 2.3925 9.07781 3.66667 9.07781C7.81779 9.07781 10.0833 5.77253 10.0833 2.6899C10.0833 2.58861 10.0801 2.24939 10.0751 2.15001C10.5187 1.82416 10.6984 1.48303 11 1.01289" fill="white"/>
</svg>
