<svg width="30" height="30" viewBox="0 0 30 30" fill="none" xmlns="http://www.w3.org/2000/svg">
<rect width="30" height="30" fill="#4D3A39"/>
<path d="M20 11.0129C19.5957 11.1997 19.0838 11.375 18.625 11.4333C19.0916 11.1448 19.8318 10.5437 20 10C19.5641 10.2671 18.7758 10.5523 18.2615 10.6555C17.8509 10.2016 17.2651 10 16.6161 10C15.3695 10 14.5 11.1013 14.5 12.3889V13.3445C12.6667 13.3445 10.8792 11.8887 9.76679 10.4778C9.56566 10.8334 9.46006 11.2389 9.46108 11.6517C9.46108 12.5208 10.227 13.4027 10.8333 13.8222C10.4635 13.8103 9.76313 13.516 9.45833 13.3445V13.3717C9.45833 14.5026 10.2196 15.2704 11.2513 15.4844C11.063 15.5384 10.8333 15.7334 9.94967 15.7334C10.2366 16.6579 11.679 17.1466 12.6667 17.1667C11.8939 17.7911 10.5162 18.1223 9.45833 18.1223C9.27546 18.1223 9.17646 18.1328 9 18.1113C9.99825 18.7706 11.3925 19.0778 12.6667 19.0778C16.8178 19.0778 19.0833 15.7725 19.0833 12.6899C19.0833 12.5886 19.0801 12.2494 19.0751 12.15C19.5187 11.8242 19.6984 11.483 20 11.0129Z" fill="white"/>
</svg>
